# This file is brought to you by Roblox Corporation
# Generated by Roblox Studio

mtllib flag.mtl

g Part1

v 356.708 79.8292 -74.9226 
v 356.531 79.8292 -74.7459 
v 356.5 79.8292 -74.784 
v 356.471 79.8292 -74.8436 
v 356.458 79.8292 -74.9226 
v 356.471 79.8292 -75.0017 
v 356.5 79.8292 -75.0613 
v 356.531 79.8292 -75.0994 
v 356.531 79.8292 -75.0994 
v 356.569 79.8292 -75.1307 
v 356.629 79.8292 -75.1598 
v 356.708 79.8292 -75.1726 
v 356.787 79.8292 -75.1598 
v 356.846 79.8292 -75.1307 
v 356.884 79.8292 -75.0994 
v 356.884 79.8292 -75.0994 
v 356.916 79.8292 -75.0613 
v 356.945 79.8292 -75.0017 
v 356.958 79.8292 -74.9226 
v 356.945 79.8292 -74.8436 
v 356.916 79.8292 -74.784 
v 356.884 79.8292 -74.7459 
v 356.884 79.8292 -74.7459 
v 356.846 79.8292 -74.7146 
v 356.787 79.8292 -74.6855 
v 356.708 79.8292 -74.6726 
v 356.629 79.8292 -74.6855 
v 356.569 79.8292 -74.7146 
v 356.531 79.8292 -74.7459 
v 356.884 69.8292 -74.7459 
v 356.884 79.8292 -74.7459 
v 356.846 69.8292 -74.7146 
v 356.846 79.8292 -74.7146 
v 356.787 69.8292 -74.6855 
v 356.787 79.8292 -74.6855 
v 356.708 69.8292 -74.6726 
v 356.708 79.8292 -74.6726 
v 356.629 69.8292 -74.6855 
v 356.629 79.8292 -74.6855 
v 356.569 69.8292 -74.7146 
v 356.569 79.8292 -74.7146 
v 356.531 69.8292 -74.7459 
v 356.531 79.8292 -74.7459 
v 356.884 79.8292 -74.7459 
v 356.884 69.8292 -74.7459 
v 356.916 79.8292 -74.784 
v 356.916 69.8292 -74.784 
v 356.945 79.8292 -74.8436 
v 356.945 69.8292 -74.8436 
v 356.958 79.8292 -74.9226 
v 356.958 69.8292 -74.9226 
v 356.945 79.8292 -75.0017 
v 356.945 69.8292 -75.0017 
v 356.916 79.8292 -75.0613 
v 356.916 69.8292 -75.0613 
v 356.884 79.8292 -75.0994 
v 356.884 69.8292 -75.0994 
v 356.708 69.8292 -74.9226 
v 356.884 69.8292 -74.7459 
v 356.916 69.8292 -74.784 
v 356.945 69.8292 -74.8436 
v 356.958 69.8292 -74.9226 
v 356.945 69.8292 -75.0017 
v 356.916 69.8292 -75.0613 
v 356.884 69.8292 -75.0994 
v 356.884 69.8292 -75.0994 
v 356.846 69.8292 -75.1307 
v 356.787 69.8292 -75.1598 
v 356.708 69.8292 -75.1726 
v 356.629 69.8292 -75.1598 
v 356.569 69.8292 -75.1307 
v 356.531 69.8292 -75.0994 
v 356.531 69.8292 -75.0994 
v 356.5 69.8292 -75.0613 
v 356.471 69.8292 -75.0017 
v 356.458 69.8292 -74.9226 
v 356.471 69.8292 -74.8436 
v 356.5 69.8292 -74.784 
v 356.531 69.8292 -74.7459 
v 356.531 69.8292 -74.7459 
v 356.569 69.8292 -74.7146 
v 356.629 69.8292 -74.6855 
v 356.708 69.8292 -74.6726 
v 356.787 69.8292 -74.6855 
v 356.846 69.8292 -74.7146 
v 356.884 69.8292 -74.7459 
v 356.531 69.8292 -75.0994 
v 356.531 79.8292 -75.0994 
v 356.569 69.8292 -75.1307 
v 356.569 79.8292 -75.1307 
v 356.629 69.8292 -75.1598 
v 356.629 79.8292 -75.1598 
v 356.708 69.8292 -75.1726 
v 356.708 79.8292 -75.1726 
v 356.787 69.8292 -75.1598 
v 356.787 79.8292 -75.1598 
v 356.846 69.8292 -75.1307 
v 356.846 79.8292 -75.1307 
v 356.884 69.8292 -75.0994 
v 356.884 79.8292 -75.0994 
v 356.531 69.8292 -74.7459 
v 356.531 79.8292 -74.7459 
v 356.5 69.8292 -74.784 
v 356.5 79.8292 -74.784 
v 356.471 69.8292 -74.8436 
v 356.471 79.8292 -74.8436 
v 356.458 69.8292 -74.9226 
v 356.458 79.8292 -74.9226 
v 356.471 69.8292 -75.0017 
v 356.471 79.8292 -75.0017 
v 356.5 69.8292 -75.0613 
v 356.5 79.8292 -75.0613 
v 356.531 69.8292 -75.0994 
v 356.531 79.8292 -75.0994 

vn 0 1 0 
vn 0 1 0 
vn 0 1 0 
vn 0 1 0 
vn 0 1 0 
vn 0 1 0 
vn 0 1 0 
vn 0 1 0 
vn 0 1 0 
vn 0 1 0 
vn 0 1 0 
vn 0 1 0 
vn 0 1 0 
vn 0 1 0 
vn 0 1 0 
vn 0 1 0 
vn 0 1 0 
vn 0 1 0 
vn 0 1 0 
vn 0 1 0 
vn 0 1 0 
vn 0 1 0 
vn 0 1 0 
vn 0 1 0 
vn 0 1 0 
vn 0 1 0 
vn 0 1 0 
vn 0 1 0 
vn 0 1 0 
vn 0.708661 0 0.708661 
vn 0.708661 0 0.708661 
vn 0.551181 0 0.834646 
vn 0.551181 0 0.834646 
vn 0.314961 0 0.944882 
vn 0.314961 0 0.944882 
vn 0 0 1 
vn 0 0 1 
vn -0.314961 0 0.944882 
vn -0.314961 0 0.944882 
vn -0.551181 0 0.834646 
vn -0.551181 0 0.834646 
vn -0.708661 0 0.708661 
vn -0.708661 0 0.708661 
vn 0.708661 0 0.708661 
vn 0.708661 0 0.708661 
vn 0.834646 0 0.551181 
vn 0.834646 0 0.551181 
vn 0.944882 0 0.314961 
vn 0.944882 0 0.314961 
vn 1 0 0 
vn 1 0 0 
vn 0.944882 0 -0.314961 
vn 0.944882 0 -0.314961 
vn 0.834646 0 -0.551181 
vn 0.834646 0 -0.551181 
vn 0.708661 0 -0.708661 
vn 0.708661 0 -0.708661 
vn 0 -1 0 
vn 0 -1 0 
vn 0 -1 0 
vn 0 -1 0 
vn 0 -1 0 
vn 0 -1 0 
vn 0 -1 0 
vn 0 -1 0 
vn 0 -1 0 
vn 0 -1 0 
vn 0 -1 0 
vn 0 -1 0 
vn 0 -1 0 
vn 0 -1 0 
vn 0 -1 0 
vn 0 -1 0 
vn 0 -1 0 
vn 0 -1 0 
vn 0 -1 0 
vn 0 -1 0 
vn 0 -1 0 
vn 0 -1 0 
vn 0 -1 0 
vn 0 -1 0 
vn 0 -1 0 
vn 0 -1 0 
vn 0 -1 0 
vn 0 -1 0 
vn 0 -1 0 
vn -0.708661 0 -0.708661 
vn -0.708661 0 -0.708661 
vn -0.551181 0 -0.834646 
vn -0.551181 0 -0.834646 
vn -0.314961 0 -0.944882 
vn -0.314961 0 -0.944882 
vn 0 0 -1 
vn 0 0 -1 
vn 0.314961 0 -0.944882 
vn 0.314961 0 -0.944882 
vn 0.551181 0 -0.834646 
vn 0.551181 0 -0.834646 
vn 0.708661 0 -0.708661 
vn 0.708661 0 -0.708661 
vn -0.708661 0 0.708661 
vn -0.708661 0 0.708661 
vn -0.834646 0 0.551181 
vn -0.834646 0 0.551181 
vn -0.944882 0 0.314961 
vn -0.944882 0 0.314961 
vn -1 0 0 
vn -1 0 0 
vn -0.944882 0 -0.314961 
vn -0.944882 0 -0.314961 
vn -0.834646 0 -0.551181 
vn -0.834646 0 -0.551181 
vn -0.708661 0 -0.708661 
vn -0.708661 0 -0.708661 

vt 4.78125 -0.03125 
vt 4.80335 -0.00915289 
vt 4.80725 -0.0139157 
vt 4.8109 -0.0213679 
vt 4.8125 -0.03125 
vt 4.8109 -0.0411321 
vt 4.80725 -0.0485843 
vt 4.80335 -0.0533471 
vt 4.80335 -0.0533471 
vt 4.79858 -0.0572516 
vt 4.79113 -0.0608964 
vt 4.78125 -0.0625 
vt 4.77137 -0.0608964 
vt 4.76392 -0.0572516 
vt 4.75915 -0.0533471 
vt 4.75915 -0.0533471 
vt 4.75525 -0.0485843 
vt 4.7516 -0.0411321 
vt 4.75 -0.03125 
vt 4.7516 -0.0213679 
vt 4.75525 -0.0139157 
vt 4.75915 -0.00915289 
vt 4.75915 -0.00915289 
vt 4.76392 -0.00524843 
vt 4.77137 -0.0016036 
vt 4.78125 0 
vt 4.79113 -0.0016036 
vt 4.79858 -0.00524843 
vt 4.80335 -0.00915289 
vt 10.75 -1 
vt 9.5 -1 
vt 10.75 -1.01042 
vt 9.5 -1.01042 
vt 10.75 -1.02083 
vt 9.5 -1.02083 
vt 10.75 -1.03125 
vt 9.5 -1.03125 
vt 10.75 -1.04167 
vt 9.5 -1.04167 
vt 10.75 -1.05208 
vt 9.5 -1.05208 
vt 10.75 -1.0625 
vt 9.5 -1.0625 
vt 10.75 -1 
vt 9.5 -1 
vt 10.75 -1.01042 
vt 9.5 -1.01042 
vt 10.75 -1.02083 
vt 9.5 -1.02083 
vt 10.75 -1.03125 
vt 9.5 -1.03125 
vt 10.75 -1.04167 
vt 9.5 -1.04167 
vt 10.75 -1.05208 
vt 9.5 -1.05208 
vt 10.75 -1.0625 
vt 9.5 -1.0625 
vt 4.78125 -0.03125 
vt 4.80335 -0.00915289 
vt 4.80725 -0.0139157 
vt 4.8109 -0.0213679 
vt 4.8125 -0.03125 
vt 4.8109 -0.0411321 
vt 4.80725 -0.0485843 
vt 4.80335 -0.0533471 
vt 4.80335 -0.0533471 
vt 4.79858 -0.0572516 
vt 4.79113 -0.0608964 
vt 4.78125 -0.0625 
vt 4.77137 -0.0608964 
vt 4.76392 -0.0572516 
vt 4.75915 -0.0533471 
vt 4.75915 -0.0533471 
vt 4.75525 -0.0485843 
vt 4.7516 -0.0411321 
vt 4.75 -0.03125 
vt 4.7516 -0.0213679 
vt 4.75525 -0.0139157 
vt 4.75915 -0.00915289 
vt 4.75915 -0.00915289 
vt 4.76392 -0.00524843 
vt 4.77137 -0.0016036 
vt 4.78125 0 
vt 4.79113 -0.0016036 
vt 4.79858 -0.00524843 
vt 4.80335 -0.00915289 
vt 10.75 -1 
vt 9.5 -1 
vt 10.75 -1.01042 
vt 9.5 -1.01042 
vt 10.75 -1.02083 
vt 9.5 -1.02083 
vt 10.75 -1.03125 
vt 9.5 -1.03125 
vt 10.75 -1.04167 
vt 9.5 -1.04167 
vt 10.75 -1.05208 
vt 9.5 -1.05208 
vt 10.75 -1.0625 
vt 9.5 -1.0625 
vt 10.75 -1 
vt 9.5 -1 
vt 10.75 -1.01042 
vt 9.5 -1.01042 
vt 10.75 -1.02083 
vt 9.5 -1.02083 
vt 10.75 -1.03125 
vt 9.5 -1.03125 
vt 10.75 -1.04167 
vt 9.5 -1.04167 
vt 10.75 -1.05208 
vt 9.5 -1.05208 
vt 10.75 -1.0625 
vt 9.5 -1.0625 

usemtl Part1Mtl

f 1/1/1 3/3/3 2/2/2 
f 1/1/1 4/4/4 3/3/3 
f 1/1/1 5/5/5 4/4/4 
f 1/1/1 6/6/6 5/5/5 
f 1/1/1 7/7/7 6/6/6 
f 1/1/1 8/8/8 7/7/7 
f 1/1/1 10/10/10 9/9/9 
f 1/1/1 11/11/11 10/10/10 
f 1/1/1 12/12/12 11/11/11 
f 1/1/1 13/13/13 12/12/12 
f 1/1/1 14/14/14 13/13/13 
f 1/1/1 15/15/15 14/14/14 
f 1/1/1 17/17/17 16/16/16 
f 1/1/1 18/18/18 17/17/17 
f 1/1/1 19/19/19 18/18/18 
f 1/1/1 20/20/20 19/19/19 
f 1/1/1 21/21/21 20/20/20 
f 1/1/1 22/22/22 21/21/21 
f 1/1/1 24/24/24 23/23/23 
f 1/1/1 25/25/25 24/24/24 
f 1/1/1 26/26/26 25/25/25 
f 1/1/1 27/27/27 26/26/26 
f 1/1/1 28/28/28 27/27/27 
f 1/1/1 29/29/29 28/28/28 
f 30/30/30 31/31/31 32/32/32 
f 32/32/32 31/31/31 33/33/33 
f 32/32/32 33/33/33 34/34/34 
f 34/34/34 33/33/33 35/35/35 
f 34/34/34 35/35/35 36/36/36 
f 36/36/36 35/35/35 37/37/37 
f 36/36/36 37/37/37 38/38/38 
f 38/38/38 37/37/37 39/39/39 
f 38/38/38 39/39/39 40/40/40 
f 40/40/40 39/39/39 41/41/41 
f 40/40/40 41/41/41 42/42/42 
f 42/42/42 41/41/41 43/43/43 
f 44/44/44 45/45/45 46/46/46 
f 46/46/46 45/45/45 47/47/47 
f 46/46/46 47/47/47 48/48/48 
f 48/48/48 47/47/47 49/49/49 
f 48/48/48 49/49/49 50/50/50 
f 50/50/50 49/49/49 51/51/51 
f 50/50/50 51/51/51 52/52/52 
f 52/52/52 51/51/51 53/53/53 
f 52/52/52 53/53/53 54/54/54 
f 54/54/54 53/53/53 55/55/55 
f 54/54/54 55/55/55 56/56/56 
f 56/56/56 55/55/55 57/57/57 
f 58/58/58 60/60/60 59/59/59 
f 58/58/58 61/61/61 60/60/60 
f 58/58/58 62/62/62 61/61/61 
f 58/58/58 63/63/63 62/62/62 
f 58/58/58 64/64/64 63/63/63 
f 58/58/58 65/65/65 64/64/64 
f 58/58/58 67/67/67 66/66/66 
f 58/58/58 68/68/68 67/67/67 
f 58/58/58 69/69/69 68/68/68 
f 58/58/58 70/70/70 69/69/69 
f 58/58/58 71/71/71 70/70/70 
f 58/58/58 72/72/72 71/71/71 
f 58/58/58 74/74/74 73/73/73 
f 58/58/58 75/75/75 74/74/74 
f 58/58/58 76/76/76 75/75/75 
f 58/58/58 77/77/77 76/76/76 
f 58/58/58 78/78/78 77/77/77 
f 58/58/58 79/79/79 78/78/78 
f 58/58/58 81/81/81 80/80/80 
f 58/58/58 82/82/82 81/81/81 
f 58/58/58 83/83/83 82/82/82 
f 58/58/58 84/84/84 83/83/83 
f 58/58/58 85/85/85 84/84/84 
f 58/58/58 86/86/86 85/85/85 
f 87/87/87 88/88/88 89/89/89 
f 89/89/89 88/88/88 90/90/90 
f 89/89/89 90/90/90 91/91/91 
f 91/91/91 90/90/90 92/92/92 
f 91/91/91 92/92/92 93/93/93 
f 93/93/93 92/92/92 94/94/94 
f 93/93/93 94/94/94 95/95/95 
f 95/95/95 94/94/94 96/96/96 
f 95/95/95 96/96/96 97/97/97 
f 97/97/97 96/96/96 98/98/98 
f 97/97/97 98/98/98 99/99/99 
f 99/99/99 98/98/98 100/100/100 
f 101/101/101 102/102/102 103/103/103 
f 103/103/103 102/102/102 104/104/104 
f 103/103/103 104/104/104 105/105/105 
f 105/105/105 104/104/104 106/106/106 
f 105/105/105 106/106/106 107/107/107 
f 107/107/107 106/106/106 108/108/108 
f 107/107/107 108/108/108 109/109/109 
f 109/109/109 108/108/108 110/110/110 
f 109/109/109 110/110/110 111/111/111 
f 111/111/111 110/110/110 112/112/112 
f 111/111/111 112/112/112 113/113/113 
f 113/113/113 112/112/112 114/114/114 

g Part2

v 356.485 79.829 -75.0067 
v 356.485 79.829 -75.0067 
v 353.04 76.7707 -75.0067 
v 356.485 76.7707 -75.0067 
v 356.485 79.829 -75.0067 
v 356.485 79.829 -74.8385 
v 356.485 76.7707 -75.0067 
v 356.485 76.7707 -74.8385 
v 356.485 79.829 -74.8385 
v 356.485 79.829 -74.8385 
v 356.485 76.7707 -74.8385 
v 353.04 76.7707 -74.8385 
v 353.04 76.7707 -74.8385 
v 353.04 76.7707 -75.0067 
v 356.485 76.7707 -74.8385 
v 356.485 76.7707 -75.0067 
v 356.485 79.829 -74.8385 
v 356.485 79.829 -75.0067 
v 353.04 76.7707 -74.8385 
v 353.04 76.7707 -75.0067 

vn 0 0 -1 
vn 0 0 -1 
vn 0 0 -1 
vn 0 0 -1 
vn 1 0 0 
vn 1 0 0 
vn 1 0 0 
vn 1 0 0 
vn 0 0 1 
vn 0 0 1 
vn 0 0 1 
vn 0 0 1 
vn 0 -1 0 
vn 0 -1 0 
vn 0 -1 0 
vn 0 -1 0 
vn -0.661417 0.748031 0 
vn -0.661417 0.748031 0 
vn -0.661417 0.748031 0 
vn -0.661417 0.748031 0 

vt 1 -3 
vt 1 -3 
vt 1.43062 -3.38229 
vt 1 -3.38229 
vt 1.02102 -3 
vt 1 -3 
vt 1.02102 -3.38229 
vt 1 -3.38229 
vt 1.43062 -3 
vt 1.43062 -3 
vt 1.43062 -3.38229 
vt 1 -3.38229 
vt 1.02102 -3 
vt 1 -3 
vt 1.02102 -3.43062 
vt 1 -3.43062 
vt 1.02102 -3 
vt 1 -3 
vt 1.02102 -3.57583 
vt 1 -3.57583 

usemtl Part2Mtl

f 115/115/115 116/116/116 117/117/117 
f 117/117/117 116/116/116 118/118/118 
f 119/119/119 120/120/120 121/121/121 
f 121/121/121 120/120/120 122/122/122 
f 123/123/123 124/124/124 125/125/125 
f 125/125/125 124/124/124 126/126/126 
f 127/127/127 128/128/128 129/129/129 
f 129/129/129 128/128/128 130/130/130 
f 131/131/131 132/132/132 133/133/133 
f 133/133/133 132/132/132 134/134/134 

